<svg width="153" height="165" viewBox="0 0 153 165" fill="none" xmlns="http://www.w3.org/2000/svg">
<circle opacity="0.5" r="2.47581" transform="matrix(1 -8.74228e-08 -8.74228e-08 -1 94.7004 162.165)" fill="black"/>
<circle opacity="0.5" r="2.47581" transform="matrix(1 -8.74228e-08 -8.74228e-08 -1 106.46 16.7117)" fill="black"/>
<circle opacity="0.5" r="2.47581" transform="matrix(1 -8.74228e-08 -8.74228e-08 -1 77.3694 153.499)" fill="black"/>
<circle opacity="0.5" r="2.47581" transform="matrix(1 -8.74228e-08 -8.74228e-08 -1 108.935 153.499)" fill="black"/>
<circle opacity="0.5" r="2.47581" transform="matrix(1 -8.74228e-08 -8.74228e-08 -1 125.029 153.499)" fill="black"/>
<ellipse opacity="0.5" rx="3.40424" ry="3.71372" transform="matrix(4.37114e-08 1 1 -4.37114e-08 27.8529 138.955)" fill="black"/>
<ellipse opacity="0.5" rx="3.40424" ry="3.71372" transform="matrix(1 -8.74228e-08 -8.74228e-08 -1 125.338 139.265)" fill="black"/>
<ellipse opacity="0.5" rx="3.40424" ry="3.71372" transform="matrix(1 -8.74228e-08 -8.74228e-08 -1 108.626 139.265)" fill="black"/>
<circle opacity="0.5" r="3.71372" transform="matrix(1 -8.74228e-08 -8.74228e-08 -1 94.6996 139.265)" fill="black"/>
<circle opacity="0.5" r="3.71372" transform="matrix(1 -8.74228e-08 -8.74228e-08 -1 77.3685 139.265)" fill="black"/>
<circle opacity="0.5" r="3.71372" transform="matrix(1 -8.74228e-08 -8.74228e-08 -1 60.0379 139.265)" fill="black"/>
<circle opacity="0.5" r="3.71372" transform="matrix(1 -8.74228e-08 -8.74228e-08 -1 42.7074 139.265)" fill="black"/>
<circle opacity="0.5" r="3.71372" transform="matrix(4.37114e-08 1 1 -4.37114e-08 27.8529 30.327)" fill="black"/>
<circle r="4.84989" transform="matrix(4.37114e-08 1 1 -4.37114e-08 42.6819 30.2268)" fill="black"/>
<circle r="4.84989" transform="matrix(4.37114e-08 1 1 -4.37114e-08 58.845 30.2268)" fill="black"/>
<circle r="4.84989" transform="matrix(4.37114e-08 1 1 -4.37114e-08 75.0144 30.2268)" fill="black"/>
<circle r="4.84989" transform="matrix(4.37114e-08 1 1 -4.37114e-08 91.177 30.2268)" fill="black"/>
<circle r="4.84989" transform="matrix(4.37114e-08 1 1 -4.37114e-08 108.834 30.2268)" fill="black"/>
<circle opacity="0.5" r="4.84989" transform="matrix(4.37114e-08 1 1 -4.37114e-08 125.546 30.2268)" fill="black"/>
<circle opacity="0.5" r="3.71372" transform="matrix(4.37114e-08 1 1 -4.37114e-08 27.8529 46.4207)" fill="black"/>
<circle opacity="0.5" r="2.47581" transform="matrix(-0.258819 0.965926 0.965926 0.258819 14.7927 46.3584)" fill="black"/>
<circle opacity="0.5" r="2.47581" transform="matrix(-0.258819 0.965926 0.965926 0.258819 138.583 46.3584)" fill="black"/>
<circle r="4.84989" transform="matrix(4.37114e-08 1 1 -4.37114e-08 42.6819 46.3186)" fill="black"/>
<circle r="4.84989" transform="matrix(4.37114e-08 1 1 -4.37114e-08 58.845 46.3186)" fill="black"/>
<circle r="4.84989" transform="matrix(4.37114e-08 1 1 -4.37114e-08 75.0144 46.3186)" fill="black"/>
<circle r="4.84989" transform="matrix(4.37114e-08 1 1 -4.37114e-08 91.177 46.3186)" fill="black"/>
<circle r="4.84989" transform="matrix(4.37114e-08 1 1 -4.37114e-08 108.834 46.3186)" fill="black"/>
<circle opacity="0.5" r="4.84989" transform="matrix(4.37114e-08 1 1 -4.37114e-08 125.546 46.3186)" fill="black"/>
<ellipse opacity="0.5" rx="3.40424" ry="3.71372" transform="matrix(4.37114e-08 1 1 -4.37114e-08 27.8529 64.6796)" fill="black"/>
<circle opacity="0.5" r="2.47581" transform="matrix(-0.258819 0.965926 0.965926 0.258819 14.7927 64.3076)" fill="black"/>
<circle opacity="0.5" r="2.47581" transform="matrix(-0.258819 0.965926 0.965926 0.258819 138.583 64.3076)" fill="black"/>
<ellipse opacity="0.5" rx="1.85686" ry="1.85686" transform="matrix(1.31134e-07 1 1 -1.31134e-07 150.406 64.3705)" fill="black"/>
<ellipse opacity="0.5" rx="1.85686" ry="1.85686" transform="matrix(1.31134e-07 1 1 -1.31134e-07 1.85686 64.3705)" fill="black"/>
<circle opacity="0.5" r="2.16633" transform="matrix(1.31134e-07 1 1 -1.31134e-07 90.6766 2.16633)" fill="black"/>
<circle r="4.84989" transform="matrix(4.37114e-08 1 1 -4.37114e-08 42.6819 64.2679)" fill="black"/>
<circle r="4.84989" transform="matrix(4.37114e-08 1 1 -4.37114e-08 58.845 64.2679)" fill="black"/>
<circle r="3.71372" transform="matrix(4.37114e-08 1 1 -4.37114e-08 76.1317 64.9891)" fill="black"/>
<circle r="4.84989" transform="matrix(4.37114e-08 1 1 -4.37114e-08 91.177 64.2679)" fill="black"/>
<circle r="4.84989" transform="matrix(4.37114e-08 1 1 -4.37114e-08 108.834 64.2679)" fill="black"/>
<circle opacity="0.5" r="4.84989" transform="matrix(4.37114e-08 1 1 -4.37114e-08 125.546 64.2679)" fill="black"/>
<ellipse opacity="0.5" rx="3.40424" ry="3.71372" transform="matrix(4.37114e-08 1 1 -4.37114e-08 27.8529 79.5351)" fill="black"/>
<circle opacity="0.5" r="2.47581" transform="matrix(-0.258819 0.965926 0.965926 0.258819 14.7927 79.1631)" fill="black"/>
<circle opacity="0.5" r="2.47581" transform="matrix(-0.258819 0.965926 0.965926 0.258819 138.583 79.1631)" fill="black"/>
<circle r="4.84989" transform="matrix(4.37114e-08 1 1 -4.37114e-08 42.6819 79.1233)" fill="black"/>
<circle r="4.84989" transform="matrix(4.37114e-08 1 1 -4.37114e-08 58.845 79.1233)" fill="black"/>
<circle r="4.84989" transform="matrix(4.37114e-08 1 1 -4.37114e-08 75.0144 79.1233)" fill="black"/>
<circle r="4.84989" transform="matrix(4.37114e-08 1 1 -4.37114e-08 91.177 79.1233)" fill="black"/>
<circle r="4.84989" transform="matrix(4.37114e-08 1 1 -4.37114e-08 108.834 79.1233)" fill="black"/>
<circle r="2.78529" transform="matrix(4.37114e-08 1 1 -4.37114e-08 125.338 79.5333)" fill="black"/>
<ellipse opacity="0.5" rx="3.40424" ry="3.71372" transform="matrix(4.37114e-08 1 1 -4.37114e-08 27.8529 95.0078)" fill="black"/>
<circle opacity="0.5" r="2.47581" transform="matrix(-0.258819 0.965926 0.965926 0.258819 14.7927 94.6358)" fill="black"/>
<circle opacity="0.5" r="2.47581" transform="matrix(-0.258819 0.965926 0.965926 0.258819 138.583 94.6358)" fill="black"/>
<circle opacity="0.5" r="2.47581" transform="matrix(-0.258819 0.965926 0.965926 0.258819 74.8307 16.7744)" fill="black"/>
<circle r="4.84989" transform="matrix(4.37114e-08 1 1 -4.37114e-08 42.6819 94.5979)" fill="black"/>
<circle r="4.84989" transform="matrix(4.37114e-08 1 1 -4.37114e-08 58.845 94.5979)" fill="black"/>
<circle r="3.09476" transform="matrix(4.37114e-08 1 1 -4.37114e-08 76.7495 94.6983)" fill="black"/>
<circle r="4.84989" transform="matrix(4.37114e-08 1 1 -4.37114e-08 91.177 94.5979)" fill="black"/>
<circle r="4.84989" transform="matrix(4.37114e-08 1 1 -4.37114e-08 108.834 94.5979)" fill="black"/>
<circle r="4.84989" transform="matrix(4.37114e-08 1 1 -4.37114e-08 125.546 94.5979)" fill="black"/>
<ellipse opacity="0.5" rx="3.40424" ry="3.71372" transform="matrix(4.37114e-08 1 1 -4.37114e-08 27.8529 108.625)" fill="black"/>
<circle r="4.84989" transform="matrix(4.37114e-08 1 1 -4.37114e-08 42.6819 108.834)" fill="black"/>
<circle r="4.84989" transform="matrix(4.37114e-08 1 1 -4.37114e-08 58.845 108.834)" fill="black"/>
<circle opacity="0.75" r="4.84989" transform="matrix(4.37114e-08 1 1 -4.37114e-08 75.0144 108.834)" fill="black"/>
<circle opacity="0.75" r="4.84989" transform="matrix(4.37114e-08 1 1 -4.37114e-08 91.177 108.834)" fill="black"/>
<circle opacity="0.75" r="4.84989" transform="matrix(4.37114e-08 1 1 -4.37114e-08 108.834 108.834)" fill="black"/>
<circle opacity="0.75" r="4.84989" transform="matrix(4.37114e-08 1 1 -4.37114e-08 125.546 108.834)" fill="black"/>
<ellipse opacity="0.5" rx="3.40424" ry="3.71372" transform="matrix(4.37114e-08 1 1 -4.37114e-08 27.8529 123.48)" fill="black"/>
<circle r="4.84989" transform="matrix(4.37114e-08 1 1 -4.37114e-08 42.6819 123.069)" fill="black"/>
<circle r="4.84989" transform="matrix(4.37114e-08 1 1 -4.37114e-08 58.845 123.069)" fill="black"/>
<circle opacity="0.75" r="4.84989" transform="matrix(4.37114e-08 1 1 -4.37114e-08 75.0144 123.069)" fill="black"/>
<circle opacity="0.75" r="4.84989" transform="matrix(4.37114e-08 1 1 -4.37114e-08 91.177 123.069)" fill="black"/>
<circle opacity="0.75" r="4.84989" transform="matrix(4.37114e-08 1 1 -4.37114e-08 108.834 123.069)" fill="black"/>
<circle opacity="0.75" r="4.84989" transform="matrix(4.37114e-08 1 1 -4.37114e-08 125.546 123.069)" fill="black"/>
</svg>
