<svg width="164" height="76" viewBox="0 0 164 76" fill="none" xmlns="http://www.w3.org/2000/svg">
<path d="M123.404 17.0056C125.205 18.9565 128.246 19.0782 130.197 17.2774C132.148 15.4766 132.27 12.4352 130.469 10.4843L123.404 17.0056ZM80.0893 16.0374L76.2919 18.9852L80.0893 16.0374ZM79.4289 15.1867L75.6315 18.1345L79.4289 15.1867ZM54.0979 16.2242L57.7885 19.3048L54.0979 16.2242ZM23.5426 17.4409L24.5319 18.7154L32.1268 12.8198L31.1375 11.5453L23.5426 17.4409ZM57.7885 19.3048L59.0112 17.8399L51.6299 11.6789L50.4073 13.1437L57.7885 19.3048ZM75.6315 18.1345L76.2919 18.9852L83.8868 13.0896L83.2264 12.2389L75.6315 18.1345ZM123.261 16.8509L123.404 17.0056L130.469 10.4843L130.326 10.3296L123.261 16.8509ZM107.821 17.9959C111.4 12.7347 118.945 12.1752 123.261 16.8509L130.326 10.3296C121.813 1.10695 106.931 2.21053 99.8717 12.588L107.821 17.9959ZM76.2919 18.9852C84.4118 29.4455 100.373 28.9447 107.821 17.9959L99.8717 12.588C96.0956 18.1389 88.0035 18.3928 83.8868 13.0896L76.2919 18.9852ZM59.0112 17.8399C63.3756 12.6112 71.4551 12.7543 75.6315 18.1345L83.2264 12.2389C75.2868 2.01084 59.927 1.73863 51.6299 11.6789L59.0112 17.8399ZM24.5319 18.7154C32.8887 29.4808 49.0555 29.7673 57.7885 19.3048L50.4073 13.1437C45.6069 18.8948 36.7204 18.7373 32.1268 12.8198L24.5319 18.7154ZM31.1375 11.5453C23.4468 1.63788 8.64288 1.16467 0.335104 10.5606L7.53794 16.9293C11.8546 12.0472 19.5466 12.2931 23.5426 17.4409L31.1375 11.5453Z" fill="black"/>
<path d="M155.404 61.0056C157.205 62.9565 160.246 63.0782 162.197 61.2774C164.148 59.4766 164.27 56.4352 162.469 54.4843L155.404 61.0056ZM112.089 60.0374L108.292 62.9852L112.089 60.0374ZM111.429 59.1867L107.632 62.1345L111.429 59.1867ZM86.0979 60.2242L89.7885 63.3048L86.0979 60.2242ZM55.5426 61.4409L56.5319 62.7154L64.1268 56.8198L63.1375 55.5453L55.5426 61.4409ZM89.7885 63.3048L91.0112 61.8399L83.6299 55.6789L82.4073 57.1437L89.7885 63.3048ZM107.632 62.1345L108.292 62.9852L115.887 57.0896L115.226 56.2389L107.632 62.1345ZM155.261 60.8509L155.404 61.0056L162.469 54.4843L162.326 54.3296L155.261 60.8509ZM139.821 61.9959C143.4 56.7347 150.945 56.1752 155.261 60.8509L162.326 54.3296C153.813 45.1069 138.931 46.2105 131.872 56.588L139.821 61.9959ZM108.292 62.9852C116.412 73.4455 132.373 72.9447 139.821 61.9959L131.872 56.588C128.096 62.1389 120.003 62.3928 115.887 57.0896L108.292 62.9852ZM91.0112 61.8399C95.3756 56.6112 103.455 56.7543 107.632 62.1345L115.226 56.2389C107.287 46.0108 91.927 45.7386 83.6299 55.6789L91.0112 61.8399ZM56.5319 62.7154C64.8887 73.4808 81.0555 73.7673 89.7885 63.3048L82.4073 57.1437C77.6069 62.8948 68.7204 62.7373 64.1268 56.8198L56.5319 62.7154ZM63.1375 55.5453C55.4468 45.6379 40.6429 45.1647 32.3351 54.5606L39.5379 60.9293C43.8546 56.0472 51.5466 56.2931 55.5426 61.4409L63.1375 55.5453Z" fill="black"/>
</svg>
